# This file uses centimeters as units for non-parametric coordinates.

mtllib ProjectileObject.mtl
g default
v 0.001081 0.001872 -0.013058
v -0.001081 0.001872 -0.013058
v -0.002161 0.000000 -0.013058
v -0.001081 -0.001872 -0.013058
v 0.001081 -0.001872 -0.013058
v 0.002161 0.000000 -0.013058
v 0.002074 0.003592 -0.008476
v -0.002074 0.003592 -0.008476
v -0.004147 0.000000 -0.008476
v -0.002074 -0.003592 -0.008476
v 0.002074 -0.003592 -0.008476
v 0.004147 0.000000 -0.008476
v 0.002899 0.005021 -0.001253
v -0.002899 0.005021 -0.001253
v -0.005798 0.000000 -0.001253
v -0.002899 -0.005021 -0.001253
v 0.002899 -0.005021 -0.001253
v 0.005798 0.000000 -0.001253
v 0.003489 0.006043 0.008025
v -0.003489 0.006043 0.008025
v -0.006978 0.000000 0.008025
v -0.003489 -0.006043 0.008025
v 0.003489 -0.006043 0.008025
v 0.006978 0.000000 0.008025
v 0.003797 0.006576 0.018608
v -0.003797 0.006576 0.018608
v -0.007593 0.000000 0.018608
v -0.003797 -0.006576 0.018608
v 0.003797 -0.006576 0.018608
v 0.007593 0.000000 0.018608
v 0.003797 0.006576 0.029638
v -0.003797 0.006576 0.029638
v -0.007593 0.000000 0.029638
v -0.003797 -0.006576 0.029638
v 0.003797 -0.006576 0.029638
v 0.007593 0.000000 0.029638
v 0.004322 0.007487 0.039930
v -0.004322 0.007487 0.039930
v -0.008645 0.000000 0.039930
v -0.004322 -0.007487 0.039930
v 0.004322 -0.007487 0.039930
v 0.008645 0.000000 0.039930
v 0.003591 0.006220 0.062946
v -0.003591 0.006220 0.062946
v -0.007182 0.000000 0.062946
v -0.003591 -0.006220 0.062946
v 0.003591 -0.006220 0.062946
v 0.007182 -0.000000 0.062946
v 0.002569 0.004450 0.080862
v -0.002569 0.004450 0.080862
v -0.005138 0.000000 0.080862
v -0.002569 -0.004450 0.080862
v 0.002569 -0.004450 0.080862
v 0.005138 0.000000 0.080862
v 0.001339 0.002319 0.092227
v -0.001339 0.002319 0.092227
v -0.002678 -0.000000 0.092227
v -0.001339 -0.002319 0.092227
v 0.001339 -0.002319 0.092227
v 0.002678 0.000000 0.092227
v 0.000000 0.000000 -0.014628
v 0.000000 -0.000000 0.096121
vt 0.000000 0.090909
vt 0.166667 0.090909
vt 0.333333 0.090909
vt 0.500000 0.090909
vt 0.666667 0.090909
vt 0.833333 0.090909
vt 1.000000 0.090909
vt 0.000000 0.181818
vt 0.166667 0.181818
vt 0.333333 0.181818
vt 0.500000 0.181818
vt 0.666667 0.181818
vt 0.833333 0.181818
vt 1.000000 0.181818
vt 0.000000 0.272727
vt 0.166667 0.272727
vt 0.333333 0.272727
vt 0.500000 0.272727
vt 0.666667 0.272727
vt 0.833333 0.272727
vt 1.000000 0.272727
vt 0.000000 0.363636
vt 0.166667 0.363636
vt 0.333333 0.363636
vt 0.500000 0.363636
vt 0.666667 0.363636
vt 0.833333 0.363636
vt 1.000000 0.363636
vt 0.000000 0.454545
vt 0.166667 0.454545
vt 0.333333 0.454545
vt 0.500000 0.454545
vt 0.666667 0.454545
vt 0.833333 0.454545
vt 1.000000 0.454545
vt 0.000000 0.545455
vt 0.166667 0.545455
vt 0.333333 0.545455
vt 0.500000 0.545455
vt 0.666667 0.545455
vt 0.833333 0.545455
vt 1.000000 0.545455
vt 0.000000 0.636364
vt 0.166667 0.636364
vt 0.333333 0.636364
vt 0.500000 0.636364
vt 0.666667 0.636364
vt 0.833333 0.636364
vt 1.000000 0.636364
vt 0.000000 0.727273
vt 0.166667 0.727273
vt 0.333333 0.727273
vt 0.500000 0.727273
vt 0.666667 0.727273
vt 0.833333 0.727273
vt 1.000000 0.727273
vt 0.000000 0.818182
vt 0.166667 0.818182
vt 0.333333 0.818182
vt 0.500000 0.818182
vt 0.666667 0.818182
vt 0.833333 0.818182
vt 1.000000 0.818182
vt 0.000000 0.909091
vt 0.166667 0.909091
vt 0.333333 0.909091
vt 0.500000 0.909091
vt 0.666667 0.909091
vt 0.833333 0.909091
vt 1.000000 0.909091
vt 0.083333 0.000000
vt 0.250000 0.000000
vt 0.416667 0.000000
vt 0.583333 0.000000
vt 0.750000 0.000000
vt 0.916667 0.000000
vt 0.083333 1.000000
vt 0.250000 1.000000
vt 0.416667 1.000000
vt 0.583333 1.000000
vt 0.750000 1.000000
vt 0.916667 1.000000
vn 0.000000 0.936207 -0.351450
vn 0.000000 0.936207 -0.351450
vn 0.000000 0.936207 -0.351450
vn 0.000000 0.936206 -0.351450
vn -0.810777 0.468105 -0.351451
vn -0.810777 0.468105 -0.351451
vn -0.810777 0.468105 -0.351451
vn -0.810777 0.468105 -0.351451
vn -0.810777 -0.468105 -0.351451
vn -0.810777 -0.468105 -0.351451
vn -0.810777 -0.468105 -0.351451
vn -0.810777 -0.468105 -0.351451
vn 0.000000 -0.936206 -0.351450
vn 0.000000 -0.936206 -0.351450
vn 0.000000 -0.936207 -0.351450
vn 0.000000 -0.936207 -0.351450
vn 0.810777 -0.468105 -0.351451
vn 0.810777 -0.468105 -0.351451
vn 0.810777 -0.468105 -0.351451
vn 0.810777 -0.468105 -0.351451
vn 0.810777 0.468105 -0.351451
vn 0.810777 0.468105 -0.351451
vn 0.810777 0.468105 -0.351451
vn 0.810777 0.468105 -0.351451
vn 0.000000 0.980984 -0.194088
vn 0.000000 0.980984 -0.194088
vn 0.000000 0.980984 -0.194088
vn 0.000000 0.980984 -0.194088
vn -0.849557 0.490494 -0.194087
vn -0.849557 0.490494 -0.194087
vn -0.849557 0.490494 -0.194087
vn -0.849557 0.490494 -0.194087
vn -0.849557 -0.490493 -0.194087
vn -0.849557 -0.490493 -0.194087
vn -0.849557 -0.490493 -0.194087
vn -0.849557 -0.490493 -0.194087
vn 0.000000 -0.980984 -0.194088
vn 0.000000 -0.980984 -0.194088
vn 0.000000 -0.980984 -0.194088
vn 0.000000 -0.980984 -0.194088
vn 0.849557 -0.490494 -0.194087
vn 0.849557 -0.490494 -0.194087
vn 0.849557 -0.490494 -0.194087
vn 0.849557 -0.490494 -0.194087
vn 0.849557 0.490493 -0.194088
vn 0.849557 0.490493 -0.194088
vn 0.849557 0.490493 -0.194088
vn 0.849557 0.490493 -0.194088
vn 0.000000 0.993985 -0.109518
vn 0.000000 0.993985 -0.109518
vn 0.000000 0.993985 -0.109518
vn 0.000000 0.993985 -0.109518
vn -0.860817 0.496992 -0.109512
vn -0.860817 0.496992 -0.109512
vn -0.860817 0.496992 -0.109512
vn -0.860817 0.496992 -0.109512
vn -0.860818 -0.496991 -0.109512
vn -0.860818 -0.496991 -0.109512
vn -0.860818 -0.496991 -0.109512
vn -0.860818 -0.496991 -0.109512
vn 0.000000 -0.993985 -0.109518
vn 0.000000 -0.993985 -0.109518
vn 0.000000 -0.993985 -0.109518
vn 0.000000 -0.993985 -0.109518
vn 0.860818 -0.496991 -0.109513
vn 0.860817 -0.496991 -0.109513
vn 0.860817 -0.496991 -0.109513
vn 0.860817 -0.496991 -0.109513
vn 0.860818 0.496990 -0.109513
vn 0.860818 0.496990 -0.109513
vn 0.860818 0.496990 -0.109513
vn 0.860818 0.496990 -0.109513
vn 0.000000 0.998736 -0.050268
vn 0.000000 0.998736 -0.050268
vn 0.000000 0.998736 -0.050268
vn 0.000000 0.998736 -0.050268
vn -0.864930 0.499368 -0.050276
vn -0.864930 0.499368 -0.050276
vn -0.864930 0.499368 -0.050276
vn -0.864930 0.499368 -0.050276
vn -0.864930 -0.499368 -0.050276
vn -0.864930 -0.499368 -0.050276
vn -0.864930 -0.499368 -0.050276
vn -0.864930 -0.499368 -0.050276
vn 0.000000 -0.998736 -0.050268
vn 0.000000 -0.998736 -0.050268
vn 0.000000 -0.998736 -0.050268
vn 0.000000 -0.998736 -0.050268
vn 0.864930 -0.499368 -0.050276
vn 0.864930 -0.499368 -0.050276
vn 0.864930 -0.499368 -0.050276
vn 0.864930 -0.499368 -0.050276
vn 0.864930 0.499367 -0.050276
vn 0.864930 0.499367 -0.050276
vn 0.864930 0.499367 -0.050276
vn 0.864930 0.499367 -0.050276
vn 0.000000 1.000000 0.000000
vn 0.000000 1.000000 0.000000
vn 0.000000 1.000000 0.000000
vn 0.000000 1.000000 0.000000
vn -0.866024 0.500003 0.000000
vn -0.866024 0.500003 0.000000
vn -0.866024 0.500003 0.000000
vn -0.866024 0.500003 0.000000
vn -0.866024 -0.500003 0.000000
vn -0.866024 -0.500003 0.000000
vn -0.866024 -0.500003 0.000000
vn -0.866024 -0.500003 0.000000
vn 0.000000 -1.000000 0.000000
vn 0.000000 -1.000000 0.000000
vn 0.000000 -1.000000 0.000000
vn 0.000000 -1.000000 0.000000
vn 0.866024 -0.500003 0.000000
vn 0.866024 -0.500003 0.000000
vn 0.866024 -0.500003 0.000000
vn 0.866024 -0.500003 0.000000
vn 0.866023 0.500003 0.000000
vn 0.866023 0.500003 0.000000
vn 0.866023 0.500003 0.000000
vn 0.866023 0.500003 0.000000
vn 0.000000 0.996106 -0.088166
vn 0.000000 0.996106 -0.088166
vn 0.000000 0.996106 -0.088166
vn 0.000000 0.996106 -0.088166
vn -0.862653 0.498054 -0.088160
vn -0.862653 0.498054 -0.088160
vn -0.862653 0.498054 -0.088160
vn -0.862653 0.498054 -0.088160
vn -0.862653 -0.498054 -0.088160
vn -0.862653 -0.498054 -0.088160
vn -0.862653 -0.498054 -0.088160
vn -0.862653 -0.498054 -0.088160
vn 0.000000 -0.996106 -0.088166
vn 0.000000 -0.996106 -0.088166
vn 0.000000 -0.996106 -0.088166
vn 0.000000 -0.996106 -0.088166
vn 0.862653 -0.498054 -0.088160
vn 0.862653 -0.498054 -0.088160
vn 0.862653 -0.498054 -0.088160
vn 0.862653 -0.498054 -0.088160
vn 0.862653 0.498054 -0.088160
vn 0.862653 0.498054 -0.088160
vn 0.862653 0.498054 -0.088160
vn 0.862653 0.498054 -0.088160
vn 0.000000 0.998489 0.054946
vn 0.000000 0.998489 0.054946
vn 0.000000 0.998489 0.054946
vn 0.000000 0.998489 0.054946
vn -0.864717 0.499244 0.054945
vn -0.864717 0.499244 0.054945
vn -0.864717 0.499244 0.054945
vn -0.864718 0.499244 0.054945
vn -0.864718 -0.499244 0.054945
vn -0.864718 -0.499244 0.054945
vn -0.864718 -0.499244 0.054945
vn -0.864718 -0.499244 0.054945
vn 0.000000 -0.998489 0.054946
vn 0.000000 -0.998489 0.054946
vn 0.000000 -0.998489 0.054946
vn 0.000000 -0.998489 0.054946
vn 0.864718 -0.499244 0.054945
vn 0.864718 -0.499244 0.054945
vn 0.864718 -0.499244 0.054945
vn 0.864718 -0.499244 0.054945
vn 0.864718 0.499243 0.054945
vn 0.864718 0.499243 0.054945
vn 0.864718 0.499243 0.054945
vn 0.864718 0.499243 0.054945
vn 0.000000 0.995153 0.098341
vn 0.000000 0.995153 0.098341
vn 0.000000 0.995153 0.098341
vn 0.000000 0.995153 0.098341
vn -0.861827 0.497577 0.098340
vn -0.861827 0.497577 0.098340
vn -0.861827 0.497577 0.098340
vn -0.861827 0.497577 0.098340
vn -0.861828 -0.497577 0.098340
vn -0.861828 -0.497577 0.098340
vn -0.861828 -0.497577 0.098340
vn -0.861828 -0.497577 0.098340
vn 0.000000 -0.995153 0.098340
vn 0.000000 -0.995153 0.098340
vn 0.000000 -0.995153 0.098340
vn 0.000000 -0.995153 0.098340
vn 0.861827 -0.497577 0.098340
vn 0.861827 -0.497577 0.098340
vn 0.861828 -0.497577 0.098340
vn 0.861827 -0.497577 0.098340
vn 0.861828 0.497577 0.098340
vn 0.861828 0.497577 0.098340
vn 0.861828 0.497577 0.098340
vn 0.861828 0.497577 0.098340
vn 0.000000 0.982873 0.184283
vn 0.000000 0.982873 0.184283
vn 0.000000 0.982873 0.184283
vn 0.000000 0.982873 0.184283
vn -0.851192 0.491438 0.184284
vn -0.851192 0.491438 0.184284
vn -0.851192 0.491438 0.184284
vn -0.851192 0.491438 0.184284
vn -0.851192 -0.491438 0.184284
vn -0.851192 -0.491438 0.184284
vn -0.851192 -0.491438 0.184284
vn -0.851192 -0.491438 0.184284
vn 0.000000 -0.982873 0.184283
vn 0.000000 -0.982873 0.184284
vn 0.000000 -0.982873 0.184284
vn 0.000000 -0.982873 0.184284
vn 0.851192 -0.491438 0.184284
vn 0.851192 -0.491438 0.184284
vn 0.851192 -0.491438 0.184284
vn 0.851192 -0.491438 0.184284
vn 0.851192 0.491437 0.184284
vn 0.851192 0.491437 0.184284
vn 0.851192 0.491437 0.184284
vn 0.851192 0.491437 0.184284
vn 0.000000 0.642596 -0.766206
vn 0.000000 0.642596 -0.766206
vn 0.000000 0.642595 -0.766206
vn -0.556501 0.321298 -0.766207
vn -0.556501 0.321298 -0.766207
vn -0.556501 0.321298 -0.766207
vn -0.556502 -0.321298 -0.766207
vn -0.556502 -0.321298 -0.766207
vn -0.556502 -0.321298 -0.766207
vn 0.000000 -0.642596 -0.766206
vn 0.000000 -0.642596 -0.766206
vn 0.000000 -0.642595 -0.766206
vn 0.556501 -0.321299 -0.766208
vn 0.556501 -0.321299 -0.766208
vn 0.556501 -0.321299 -0.766208
vn 0.556501 0.321299 -0.766207
vn 0.556501 0.321299 -0.766207
vn 0.556501 0.321299 -0.766208
vn 0.000000 0.859175 0.511682
vn 0.000000 0.859175 0.511682
vn 0.000000 0.859175 0.511682
vn -0.744066 0.429589 0.511683
vn -0.744066 0.429589 0.511683
vn -0.744066 0.429589 0.511683
vn -0.744067 -0.429588 0.511682
vn -0.744067 -0.429588 0.511682
vn -0.744067 -0.429588 0.511682
vn 0.000000 -0.859175 0.511681
vn 0.000000 -0.859175 0.511681
vn 0.000000 -0.859175 0.511681
vn 0.744067 -0.429588 0.511682
vn 0.744067 -0.429588 0.511682
vn 0.744067 -0.429588 0.511682
vn 0.744067 0.429588 0.511683
vn 0.744067 0.429588 0.511683
vn 0.744067 0.429588 0.511683
s off
g ProjectileObject
usemtl initialShadingGroup
f 1/1/1 2/2/2 8/9/3 7/8/4
f 2/2/5 3/3/6 9/10/7 8/9/8
f 3/3/9 4/4/10 10/11/11 9/10/12
f 4/4/13 5/5/14 11/12/15 10/11/16
f 5/5/17 6/6/18 12/13/19 11/12/20
f 6/6/21 1/7/22 7/14/23 12/13/24
f 7/8/25 8/9/26 14/16/27 13/15/28
f 8/9/29 9/10/30 15/17/31 14/16/32
f 9/10/33 10/11/34 16/18/35 15/17/36
f 10/11/37 11/12/38 17/19/39 16/18/40
f 11/12/41 12/13/42 18/20/43 17/19/44
f 12/13/45 7/14/46 13/21/47 18/20/48
f 13/15/49 14/16/50 20/23/51 19/22/52
f 14/16/53 15/17/54 21/24/55 20/23/56
f 15/17/57 16/18/58 22/25/59 21/24/60
f 16/18/61 17/19/62 23/26/63 22/25/64
f 17/19/65 18/20/66 24/27/67 23/26/68
f 18/20/69 13/21/70 19/28/71 24/27/72
f 19/22/73 20/23/74 26/30/75 25/29/76
f 20/23/77 21/24/78 27/31/79 26/30/80
f 21/24/81 22/25/82 28/32/83 27/31/84
f 22/25/85 23/26/86 29/33/87 28/32/88
f 23/26/89 24/27/90 30/34/91 29/33/92
f 24/27/93 19/28/94 25/35/95 30/34/96
f 25/29/97 26/30/98 32/37/99 31/36/100
f 26/30/101 27/31/102 33/38/103 32/37/104
f 27/31/105 28/32/106 34/39/107 33/38/108
f 28/32/109 29/33/110 35/40/111 34/39/112
f 29/33/113 30/34/114 36/41/115 35/40/116
f 30/34/117 25/35/118 31/42/119 36/41/120
f 31/36/121 32/37/122 38/44/123 37/43/124
f 32/37/125 33/38/126 39/45/127 38/44/128
f 33/38/129 34/39/130 40/46/131 39/45/132
f 34/39/133 35/40/134 41/47/135 40/46/136
f 35/40/137 36/41/138 42/48/139 41/47/140
f 36/41/141 31/42/142 37/49/143 42/48/144
f 37/43/145 38/44/146 44/51/147 43/50/148
f 38/44/149 39/45/150 45/52/151 44/51/152
f 39/45/153 40/46/154 46/53/155 45/52/156
f 40/46/157 41/47/158 47/54/159 46/53/160
f 41/47/161 42/48/162 48/55/163 47/54/164
f 42/48/165 37/49/166 43/56/167 48/55/168
f 43/50/169 44/51/170 50/58/171 49/57/172
f 44/51/173 45/52/174 51/59/175 50/58/176
f 45/52/177 46/53/178 52/60/179 51/59/180
f 46/53/181 47/54/182 53/61/183 52/60/184
f 47/54/185 48/55/186 54/62/187 53/61/188
f 48/55/189 43/56/190 49/63/191 54/62/192
f 49/57/193 50/58/194 56/65/195 55/64/196
f 50/58/197 51/59/198 57/66/199 56/65/200
f 51/59/201 52/60/202 58/67/203 57/66/204
f 52/60/205 53/61/206 59/68/207 58/67/208
f 53/61/209 54/62/210 60/69/211 59/68/212
f 54/62/213 49/63/214 55/70/215 60/69/216
f 2/2/217 1/1/218 61/71/219
f 3/3/220 2/2/221 61/72/222
f 4/4/223 3/3/224 61/73/225
f 5/5/226 4/4/227 61/74/228
f 6/6/229 5/5/230 61/75/231
f 1/7/232 6/6/233 61/76/234
f 55/64/235 56/65/236 62/77/237
f 56/65/238 57/66/239 62/78/240
f 57/66/241 58/67/242 62/79/243
f 58/67/244 59/68/245 62/80/246
f 59/68/247 60/69/248 62/81/249
f 60/69/250 55/70/251 62/82/252
